<svg xmlns="http://www.w3.org/2000/svg" width="512" height="512" viewBox="0 0 512 512" role="img" aria-labelledby="title">
  <title id="title">Synth Brass 2</title>
  <desc>Original flat vector music icon. Recolour the background circle by changing its fill attribute. Artwork is independent.</desc>
  <circle id="background" cx="256" cy="256" r="248" fill="#93bec8"/>
  <g id="artwork">
<g transform="translate(0 11)"><path d="M158 244H315V293H156Q135 293 135 272Q135 251 156 251H319" fill="none" stroke="#eebd57" stroke-width="9" stroke-linecap="round" stroke-linejoin="round"/><path d="M288 237H344L391 210V270L344 247H288Z" fill="#eebd57"/><ellipse cx="391" cy="240" rx="7" ry="30" fill="#bd8034"/><ellipse cx="393" cy="240" rx="3" ry="23" fill="#80462f"/><path d="M104 236L247 236" fill="none" stroke="#eebd57" stroke-width="7" stroke-linecap="round"/><rect x="96" y="229" width="8" height="14" rx="2" fill="#fff3d8"/><path d="M192 244L192 291" fill="none" stroke="#bd8034" stroke-width="5" stroke-linecap="round"/><path d="M216 244L216 291" fill="none" stroke="#bd8034" stroke-width="5" stroke-linecap="round"/></g><rect x="154" y="354" width="217" height="47" rx="5" fill="#293643"/><rect x="160" y="369" width="205" height="29" rx="3" fill="#182633"/><rect x="164.0" y="373" width="8.380952380952381" height="21" rx="1" fill="#fff3d8"/><rect x="173.38095238095238" y="373" width="8.380952380952381" height="21" rx="1" fill="#fff3d8"/><rect x="182.76190476190476" y="373" width="8.380952380952381" height="21" rx="1" fill="#fff3d8"/><rect x="192.14285714285714" y="373" width="8.380952380952381" height="21" rx="1" fill="#fff3d8"/><rect x="201.52380952380952" y="373" width="8.380952380952381" height="21" rx="1" fill="#fff3d8"/><rect x="210.9047619047619" y="373" width="8.380952380952381" height="21" rx="1" fill="#fff3d8"/><rect x="220.28571428571428" y="373" width="8.380952380952381" height="21" rx="1" fill="#fff3d8"/><rect x="229.66666666666669" y="373" width="8.380952380952381" height="21" rx="1" fill="#fff3d8"/><rect x="239.04761904761904" y="373" width="8.380952380952381" height="21" rx="1" fill="#fff3d8"/><rect x="248.42857142857144" y="373" width="8.380952380952381" height="21" rx="1" fill="#fff3d8"/><rect x="257.8095238095238" y="373" width="8.380952380952381" height="21" rx="1" fill="#fff3d8"/><rect x="267.1904761904762" y="373" width="8.380952380952381" height="21" rx="1" fill="#fff3d8"/><rect x="276.57142857142856" y="373" width="8.380952380952381" height="21" rx="1" fill="#fff3d8"/><rect x="285.95238095238096" y="373" width="8.380952380952381" height="21" rx="1" fill="#fff3d8"/><rect x="295.33333333333337" y="373" width="8.380952380952381" height="21" rx="1" fill="#fff3d8"/><rect x="304.7142857142857" y="373" width="8.380952380952381" height="21" rx="1" fill="#fff3d8"/><rect x="314.0952380952381" y="373" width="8.380952380952381" height="21" rx="1" fill="#fff3d8"/><rect x="323.4761904761905" y="373" width="8.380952380952381" height="21" rx="1" fill="#fff3d8"/><rect x="332.8571428571429" y="373" width="8.380952380952381" height="21" rx="1" fill="#fff3d8"/><rect x="342.23809523809524" y="373" width="8.380952380952381" height="21" rx="1" fill="#fff3d8"/><rect x="351.6190476190476" y="373" width="8.380952380952381" height="21" rx="1" fill="#fff3d8"/><rect x="170.94190476190477" y="373" width="4.878095238095239" height="12.81" rx="1" fill="#182633"/><rect x="180.32285714285715" y="373" width="4.878095238095239" height="12.81" rx="1" fill="#182633"/><rect x="199.0847619047619" y="373" width="4.878095238095239" height="12.81" rx="1" fill="#182633"/><rect x="208.46571428571428" y="373" width="4.878095238095239" height="12.81" rx="1" fill="#182633"/><rect x="217.84666666666666" y="373" width="4.878095238095239" height="12.81" rx="1" fill="#182633"/><rect x="236.60857142857142" y="373" width="4.878095238095239" height="12.81" rx="1" fill="#182633"/><rect x="245.98952380952383" y="373" width="4.878095238095239" height="12.81" rx="1" fill="#182633"/><rect x="264.75142857142856" y="373" width="4.878095238095239" height="12.81" rx="1" fill="#182633"/><rect x="274.1323809523809" y="373" width="4.878095238095239" height="12.81" rx="1" fill="#182633"/><rect x="283.5133333333333" y="373" width="4.878095238095239" height="12.81" rx="1" fill="#182633"/><rect x="302.2752380952381" y="373" width="4.878095238095239" height="12.81" rx="1" fill="#182633"/><rect x="311.65619047619043" y="373" width="4.878095238095239" height="12.81" rx="1" fill="#182633"/><rect x="330.41809523809525" y="373" width="4.878095238095239" height="12.81" rx="1" fill="#182633"/><rect x="339.7990476190476" y="373" width="4.878095238095239" height="12.81" rx="1" fill="#182633"/><rect x="349.17999999999995" y="373" width="4.878095238095239" height="12.81" rx="1" fill="#182633"/><path d="M180 363H199V355H217V363H235" fill="none" stroke="#318f96" stroke-width="2" stroke-linecap="round" stroke-linejoin="round"/>
  </g>
</svg>