<svg xmlns="http://www.w3.org/2000/svg" width="512" height="512" viewBox="0 0 512 512" role="img" aria-labelledby="title">
  <title id="title">Music Box</title>
  <desc>Original flat vector music icon. Recolour the background circle by changing its fill attribute. Artwork is independent.</desc>
  <circle id="background" cx="256" cy="256" r="248" fill="#e99c7e"/>
  <g id="artwork">
<path d="M142 286L247 238L379 284L269 344Z" fill="#b77342"/><path d="M142 286V354L269 408V344Z" fill="#80462f"/><path d="M269 344L379 284V349L269 408Z" fill="#bd8034"/><path d="M143 277L129 162L255 122L370 158L377 273L255 222Z" fill="#b77342"/><path d="M146 173L255 138L354 170L359 246L255 210L158 252Z" fill="#eebd57"/><path d="M199 292L234 309" fill="none" stroke="#d8e4e7" stroke-width="6" stroke-linecap="round"/><path d="M212 290L245 307" fill="none" stroke="#d8e4e7" stroke-width="6" stroke-linecap="round"/><path d="M225 288L256 305" fill="none" stroke="#d8e4e7" stroke-width="6" stroke-linecap="round"/><path d="M238 286L267 303" fill="none" stroke="#d8e4e7" stroke-width="6" stroke-linecap="round"/><path d="M251 284L278 301" fill="none" stroke="#d8e4e7" stroke-width="6" stroke-linecap="round"/><path d="M264 282L289 299" fill="none" stroke="#d8e4e7" stroke-width="6" stroke-linecap="round"/><path d="M277 280L300 297" fill="none" stroke="#d8e4e7" stroke-width="6" stroke-linecap="round"/><path d="M290 278L311 295" fill="none" stroke="#d8e4e7" stroke-width="6" stroke-linecap="round"/><path d="M303 276L322 293" fill="none" stroke="#d8e4e7" stroke-width="6" stroke-linecap="round"/><path d="M381 309L406 309" fill="none" stroke="#bd8034" stroke-width="6" stroke-linecap="round"/><path d="M406 309L406 329" fill="none" stroke="#bd8034" stroke-width="6" stroke-linecap="round"/><circle cx="406" cy="335" r="8" fill="#fff3d8"/>
  </g>
</svg>