<svg xmlns="http://www.w3.org/2000/svg" width="512" height="512" viewBox="0 0 512 512" role="img" aria-labelledby="title">
  <title id="title">Marimba</title>
  <desc>Original flat vector music icon. Recolour the background circle by changing its fill attribute. Artwork is independent.</desc>
  <circle id="background" cx="256" cy="256" r="248" fill="#e99c7e"/>
  <g id="artwork">
<rect x="118" y="265" width="279" height="16" rx="3" fill="#80462f"/><rect x="121" y="319" width="271" height="12" rx="3" fill="#80462f"/><rect x="134.0" y="296" width="8" height="78.0" rx="3" fill="#bd8034"/><rect x="150.9" y="296" width="8" height="75.5" rx="3" fill="#bd8034"/><rect x="167.8" y="296" width="8" height="73.0" rx="3" fill="#bd8034"/><rect x="184.7" y="296" width="8" height="70.5" rx="3" fill="#bd8034"/><rect x="201.6" y="296" width="8" height="68.0" rx="3" fill="#bd8034"/><rect x="218.5" y="296" width="8" height="65.5" rx="3" fill="#bd8034"/><rect x="235.39999999999998" y="296" width="8" height="63.0" rx="3" fill="#bd8034"/><rect x="252.29999999999998" y="296" width="8" height="60.5" rx="3" fill="#bd8034"/><rect x="269.2" y="296" width="8" height="58.0" rx="3" fill="#bd8034"/><rect x="286.1" y="296" width="8" height="55.5" rx="3" fill="#bd8034"/><rect x="303.0" y="296" width="8" height="53.0" rx="3" fill="#bd8034"/><rect x="319.9" y="296" width="8" height="50.5" rx="3" fill="#bd8034"/><rect x="336.79999999999995" y="296" width="8" height="48.0" rx="3" fill="#bd8034"/><rect x="353.7" y="296" width="8" height="45.5" rx="3" fill="#bd8034"/><rect x="370.59999999999997" y="296" width="8" height="43.0" rx="3" fill="#bd8034"/><rect x="127.0" y="232.0" width="14" height="111.0" rx="3" fill="#b47744"/><rect x="129.0" y="235.0" width="3" height="105.0" rx="1" fill="#efddba"/><circle cx="134.0" cy="248.0" r="1.6" fill="#80462f"/><circle cx="134.0" cy="328.0" r="1.6" fill="#80462f"/><rect x="144.5" y="233.7" width="14" height="107.5" rx="3" fill="#b47744"/><rect x="146.5" y="236.7" width="3" height="101.5" rx="1" fill="#efddba"/><circle cx="151.5" cy="249.7" r="1.6" fill="#80462f"/><circle cx="151.5" cy="326.2" r="1.6" fill="#80462f"/><rect x="162.0" y="235.4" width="14" height="104.0" rx="3" fill="#b47744"/><rect x="164.0" y="238.4" width="3" height="98.0" rx="1" fill="#efddba"/><circle cx="169.0" cy="251.4" r="1.6" fill="#80462f"/><circle cx="169.0" cy="324.4" r="1.6" fill="#80462f"/><rect x="179.5" y="237.1" width="14" height="100.5" rx="3" fill="#b47744"/><rect x="181.5" y="240.1" width="3" height="94.5" rx="1" fill="#efddba"/><circle cx="186.5" cy="253.1" r="1.6" fill="#80462f"/><circle cx="186.5" cy="322.6" r="1.6" fill="#80462f"/><rect x="197.0" y="238.8" width="14" height="97.0" rx="3" fill="#b47744"/><rect x="199.0" y="241.8" width="3" height="91.0" rx="1" fill="#efddba"/><circle cx="204.0" cy="254.8" r="1.6" fill="#80462f"/><circle cx="204.0" cy="320.8" r="1.6" fill="#80462f"/><rect x="214.5" y="240.5" width="14" height="93.5" rx="3" fill="#b47744"/><rect x="216.5" y="243.5" width="3" height="87.5" rx="1" fill="#efddba"/><circle cx="221.5" cy="256.5" r="1.6" fill="#80462f"/><circle cx="221.5" cy="319.0" r="1.6" fill="#80462f"/><rect x="232.0" y="242.2" width="14" height="90.0" rx="3" fill="#b47744"/><rect x="234.0" y="245.2" width="3" height="84.0" rx="1" fill="#efddba"/><circle cx="239.0" cy="258.2" r="1.6" fill="#80462f"/><circle cx="239.0" cy="317.2" r="1.6" fill="#80462f"/><rect x="249.5" y="243.9" width="14" height="86.5" rx="3" fill="#b47744"/><rect x="251.5" y="246.9" width="3" height="80.5" rx="1" fill="#efddba"/><circle cx="256.5" cy="259.9" r="1.6" fill="#80462f"/><circle cx="256.5" cy="315.4" r="1.6" fill="#80462f"/><rect x="267.0" y="245.6" width="14" height="83.0" rx="3" fill="#b47744"/><rect x="269.0" y="248.6" width="3" height="77.0" rx="1" fill="#efddba"/><circle cx="274.0" cy="261.6" r="1.6" fill="#80462f"/><circle cx="274.0" cy="313.6" r="1.6" fill="#80462f"/><rect x="284.5" y="247.3" width="14" height="79.5" rx="3" fill="#b47744"/><rect x="286.5" y="250.3" width="3" height="73.5" rx="1" fill="#efddba"/><circle cx="291.5" cy="263.3" r="1.6" fill="#80462f"/><circle cx="291.5" cy="311.8" r="1.6" fill="#80462f"/><rect x="302.0" y="249.0" width="14" height="76.0" rx="3" fill="#b47744"/><rect x="304.0" y="252.0" width="3" height="70.0" rx="1" fill="#efddba"/><circle cx="309.0" cy="265.0" r="1.6" fill="#80462f"/><circle cx="309.0" cy="310.0" r="1.6" fill="#80462f"/><rect x="319.5" y="250.7" width="14" height="72.5" rx="3" fill="#b47744"/><rect x="321.5" y="253.7" width="3" height="66.5" rx="1" fill="#efddba"/><circle cx="326.5" cy="266.7" r="1.6" fill="#80462f"/><circle cx="326.5" cy="308.2" r="1.6" fill="#80462f"/><rect x="337.0" y="252.4" width="14" height="69.0" rx="3" fill="#b47744"/><rect x="339.0" y="255.4" width="3" height="63.0" rx="1" fill="#efddba"/><circle cx="344.0" cy="268.4" r="1.6" fill="#80462f"/><circle cx="344.0" cy="306.4" r="1.6" fill="#80462f"/><rect x="354.5" y="254.1" width="14" height="65.5" rx="3" fill="#b47744"/><rect x="356.5" y="257.1" width="3" height="59.5" rx="1" fill="#efddba"/><circle cx="361.5" cy="270.1" r="1.6" fill="#80462f"/><circle cx="361.5" cy="304.6" r="1.6" fill="#80462f"/><rect x="372.0" y="255.8" width="14" height="62.0" rx="3" fill="#b47744"/><rect x="374.0" y="258.8" width="3" height="56.0" rx="1" fill="#efddba"/><circle cx="379.0" cy="271.8" r="1.6" fill="#80462f"/><circle cx="379.0" cy="302.8" r="1.6" fill="#80462f"/><rect x="137.0" y="176" width="12" height="70" rx="2" fill="#80462f"/><circle cx="143.0" cy="188" r="1.5" fill="#fff3d8"/><circle cx="143.0" cy="234" r="1.5" fill="#fff3d8"/><rect x="154.5" y="177" width="12" height="68" rx="2" fill="#80462f"/><circle cx="160.5" cy="189" r="1.5" fill="#fff3d8"/><circle cx="160.5" cy="233" r="1.5" fill="#fff3d8"/><rect x="189.5" y="179" width="12" height="64" rx="2" fill="#80462f"/><circle cx="195.5" cy="191" r="1.5" fill="#fff3d8"/><circle cx="195.5" cy="231" r="1.5" fill="#fff3d8"/><rect x="207.0" y="180" width="12" height="62" rx="2" fill="#80462f"/><circle cx="213.0" cy="192" r="1.5" fill="#fff3d8"/><circle cx="213.0" cy="230" r="1.5" fill="#fff3d8"/><rect x="224.5" y="181" width="12" height="60" rx="2" fill="#80462f"/><circle cx="230.5" cy="193" r="1.5" fill="#fff3d8"/><circle cx="230.5" cy="229" r="1.5" fill="#fff3d8"/><rect x="259.5" y="183" width="12" height="56" rx="2" fill="#80462f"/><circle cx="265.5" cy="195" r="1.5" fill="#fff3d8"/><circle cx="265.5" cy="227" r="1.5" fill="#fff3d8"/><rect x="277.0" y="184" width="12" height="54" rx="2" fill="#80462f"/><circle cx="283.0" cy="196" r="1.5" fill="#fff3d8"/><circle cx="283.0" cy="226" r="1.5" fill="#fff3d8"/><rect x="312.0" y="186" width="12" height="50" rx="2" fill="#80462f"/><circle cx="318.0" cy="198" r="1.5" fill="#fff3d8"/><circle cx="318.0" cy="224" r="1.5" fill="#fff3d8"/><rect x="329.5" y="187" width="12" height="48" rx="2" fill="#80462f"/><circle cx="335.5" cy="199" r="1.5" fill="#fff3d8"/><circle cx="335.5" cy="223" r="1.5" fill="#fff3d8"/><rect x="347.0" y="188" width="12" height="46" rx="2" fill="#80462f"/><circle cx="353.0" cy="200" r="1.5" fill="#fff3d8"/><circle cx="353.0" cy="222" r="1.5" fill="#fff3d8"/><path d="M141 337L133 404" fill="none" stroke="#293643" stroke-width="7" stroke-linecap="round"/><path d="M371 322L382 404" fill="none" stroke="#293643" stroke-width="7" stroke-linecap="round"/><path d="M137 384L379 384" fill="none" stroke="#293643" stroke-width="5" stroke-linecap="round"/><path d="M178 123L257 192" fill="none" stroke="#80462f" stroke-width="4" stroke-linecap="round"/><path d="M326 119L254 194" fill="none" stroke="#80462f" stroke-width="4" stroke-linecap="round"/><circle cx="175" cy="120" r="10" fill="#fff3d8"/><circle cx="330" cy="116" r="10" fill="#fff3d8"/>
  </g>
</svg>