<svg xmlns="http://www.w3.org/2000/svg" width="850" height="420" viewBox="0 0 850 420"><rect width="100%" height="100%" fill="#1f2329"/><style>.label{fill:#dbe2ea;font:13px Segoe UI,Arial,sans-serif} .box{fill:#252a31;stroke:#39414b}</style><rect class="box" x="4" y="4" width="162" height="62" rx="7"/><image href="key_signature.svg" x="12" y="18" width="32" height="32"/><text class="label" x="52" y="36">Key Signature</text><rect class="box" x="174" y="4" width="162" height="62" rx="7"/><image href="triplet_feel.svg" x="182" y="18" width="32" height="32"/><text class="label" x="222" y="36">Triplet Feel</text><rect class="box" x="344" y="4" width="162" height="62" rx="7"/><image href="free_time.svg" x="352" y="18" width="32" height="32"/><text class="label" x="392" y="36">Free Time</text><rect class="box" x="514" y="4" width="162" height="62" rx="7"/><image href="double_barline.svg" x="522" y="18" width="32" height="32"/><text class="label" x="562" y="36">Double Barline</text><rect class="box" x="684" y="4" width="162" height="62" rx="7"/><image href="repeat_one_bar.svg" x="692" y="18" width="32" height="32"/><text class="label" x="732" y="36">One-bar Repeat</text><rect class="box" x="4" y="74" width="162" height="62" rx="7"/><image href="repeat_two_bars.svg" x="12" y="88" width="32" height="32"/><text class="label" x="52" y="106">Two-bar Repeat</text><rect class="box" x="174" y="74" width="162" height="62" rx="7"/><image href="directions.svg" x="182" y="88" width="32" height="32"/><text class="label" x="222" y="106">Directions</text><rect class="box" x="344" y="74" width="162" height="62" rx="7"/><image href="force_line_break.svg" x="352" y="88" width="32" height="32"/><text class="label" x="392" y="106">Force Line Break</text><rect class="box" x="514" y="74" width="162" height="62" rx="7"/><image href="prevent_line_break.svg" x="522" y="88" width="32" height="32"/><text class="label" x="562" y="106">Prevent Line Break</text><rect class="box" x="684" y="74" width="162" height="62" rx="7"/><image href="add_marker.svg" x="692" y="88" width="32" height="32"/><text class="label" x="732" y="106">Add Marker</text><rect class="box" x="4" y="144" width="162" height="62" rx="7"/><image href="marker_list.svg" x="12" y="158" width="32" height="32"/><text class="label" x="52" y="176">Marker List</text><rect class="box" x="174" y="144" width="162" height="62" rx="7"/><image href="previous_marker.svg" x="182" y="158" width="32" height="32"/><text class="label" x="222" y="176">Previous Marker</text><rect class="box" x="344" y="144" width="162" height="62" rx="7"/><image href="next_marker.svg" x="352" y="158" width="32" height="32"/><text class="label" x="392" y="176">Next Marker</text><rect class="box" x="514" y="144" width="162" height="62" rx="7"/><image href="custom_ntuplet.svg" x="522" y="158" width="32" height="32"/><text class="label" x="562" y="176">Custom N-tuplet</text><rect class="box" x="684" y="144" width="162" height="62" rx="7"/><image href="tie_note.svg" x="692" y="158" width="32" height="32"/><text class="label" x="732" y="176">Tied Note</text><rect class="box" x="4" y="214" width="162" height="62" rx="7"/><image href="tie_beat.svg" x="12" y="228" width="32" height="32"/><text class="label" x="52" y="246">Tied Beat</text><rect class="box" x="174" y="214" width="162" height="62" rx="7"/><image href="sound_duration.svg" x="182" y="228" width="32" height="32"/><text class="label" x="222" y="246">Sound Duration</text><rect class="box" x="344" y="214" width="162" height="62" rx="7"/><image href="octave_8va.svg" x="352" y="228" width="32" height="32"/><text class="label" x="392" y="246">8va</text><rect class="box" x="514" y="214" width="162" height="62" rx="7"/><image href="octave_8vb.svg" x="522" y="228" width="32" height="32"/><text class="label" x="562" y="246">8vb</text><rect class="box" x="684" y="214" width="162" height="62" rx="7"/><image href="octave_15ma.svg" x="692" y="228" width="32" height="32"/><text class="label" x="732" y="246">15ma</text><rect class="box" x="4" y="284" width="162" height="62" rx="7"/><image href="octave_15mb.svg" x="12" y="298" width="32" height="32"/><text class="label" x="52" y="316">15mb</text><rect class="box" x="174" y="284" width="162" height="62" rx="7"/><image href="voice_lead.svg" x="182" y="298" width="32" height="32"/><text class="label" x="222" y="316">Lead Voice</text><rect class="box" x="344" y="284" width="162" height="62" rx="7"/><image href="voice_bass.svg" x="352" y="298" width="32" height="32"/><text class="label" x="392" y="316">Bass Voice</text><rect class="box" x="514" y="284" width="162" height="62" rx="7"/><image href="inactive_voice_gray.svg" x="522" y="298" width="32" height="32"/><text class="label" x="562" y="316">Gray Inactive Voice</text><rect class="box" x="684" y="284" width="162" height="62" rx="7"/><image href="beam_auto.svg" x="692" y="298" width="32" height="32"/><text class="label" x="732" y="316">Automatic Beaming</text><rect class="box" x="4" y="354" width="162" height="62" rx="7"/><image href="beam_force.svg" x="12" y="368" width="32" height="32"/><text class="label" x="52" y="386">Force Beaming</text><rect class="box" x="174" y="354" width="162" height="62" rx="7"/><image href="beam_break.svg" x="182" y="368" width="32" height="32"/><text class="label" x="222" y="386">Break Beaming</text><rect class="box" x="344" y="354" width="162" height="62" rx="7"/><image href="beam_break_secondary.svg" x="352" y="368" width="32" height="32"/><text class="label" x="392" y="386">Break Secondary Beam</text><rect class="box" x="514" y="354" width="162" height="62" rx="7"/><image href="stem_auto.svg" x="522" y="368" width="32" height="32"/><text class="label" x="562" y="386">Automatic Stem Direction</text><rect class="box" x="684" y="354" width="162" height="62" rx="7"/><image href="stem_invert.svg" x="692" y="368" width="32" height="32"/><text class="label" x="732" y="386">Invert Stem Direction</text></svg>