<svg xmlns="http://www.w3.org/2000/svg" width="512" height="512" viewBox="0 0 512 512" role="img" aria-labelledby="title">
  <title id="title">Sitar</title>
  <desc>Original flat vector music icon. Recolour the background circle by changing its fill attribute. Artwork is independent.</desc>
  <circle id="background" cx="256" cy="256" r="248" fill="#e7b386"/>
  <g id="artwork">
<ellipse cx="251" cy="357" rx="61" ry="73" fill="#80462f"/><ellipse cx="247" cy="351" rx="56" ry="66" fill="#bb7c36"/><ellipse cx="247" cy="349" rx="45" ry="57" fill="#d4a258"/><ellipse cx="252" cy="218" rx="28" ry="26" fill="#80462f"/><ellipse cx="249" cy="214" rx="24" ry="22" fill="#b77342"/><path d="M240 119H259L266 352H236Z" fill="#80462f"/><rect x="245" y="105" width="11" height="239" rx="2" fill="#bd8034"/><path d="M238 84L259 78L263 122H239Z" fill="#b77342"/><circle cx="269" cy="147" r="4" fill="#bd8034"/><path d="M259 147L269 147" fill="none" stroke="#80462f" stroke-width="2" stroke-linecap="round"/><circle cx="269" cy="158" r="4" fill="#bd8034"/><path d="M259 158L269 158" fill="none" stroke="#80462f" stroke-width="2" stroke-linecap="round"/><circle cx="269" cy="169" r="4" fill="#bd8034"/><path d="M259 169L269 169" fill="none" stroke="#80462f" stroke-width="2" stroke-linecap="round"/><circle cx="269" cy="180" r="4" fill="#bd8034"/><path d="M259 180L269 180" fill="none" stroke="#80462f" stroke-width="2" stroke-linecap="round"/><circle cx="269" cy="191" r="4" fill="#bd8034"/><path d="M259 191L269 191" fill="none" stroke="#80462f" stroke-width="2" stroke-linecap="round"/><circle cx="269" cy="202" r="4" fill="#bd8034"/><path d="M259 202L269 202" fill="none" stroke="#80462f" stroke-width="2" stroke-linecap="round"/><circle cx="269" cy="213" r="4" fill="#bd8034"/><path d="M259 213L269 213" fill="none" stroke="#80462f" stroke-width="2" stroke-linecap="round"/><circle cx="269" cy="224" r="4" fill="#bd8034"/><path d="M259 224L269 224" fill="none" stroke="#80462f" stroke-width="2" stroke-linecap="round"/><circle cx="269" cy="235" r="4" fill="#bd8034"/><path d="M259 235L269 235" fill="none" stroke="#80462f" stroke-width="2" stroke-linecap="round"/><circle cx="269" cy="246" r="4" fill="#bd8034"/><path d="M259 246L269 246" fill="none" stroke="#80462f" stroke-width="2" stroke-linecap="round"/><circle cx="269" cy="257" r="4" fill="#bd8034"/><path d="M259 257L269 257" fill="none" stroke="#80462f" stroke-width="2" stroke-linecap="round"/><circle cx="269" cy="268" r="4" fill="#bd8034"/><path d="M259 268L269 268" fill="none" stroke="#80462f" stroke-width="2" stroke-linecap="round"/><circle cx="269" cy="279" r="4" fill="#bd8034"/><path d="M259 279L269 279" fill="none" stroke="#80462f" stroke-width="2" stroke-linecap="round"/><circle cx="269" cy="290" r="4" fill="#bd8034"/><path d="M259 290L269 290" fill="none" stroke="#80462f" stroke-width="2" stroke-linecap="round"/><circle cx="269" cy="301" r="4" fill="#bd8034"/><path d="M259 301L269 301" fill="none" stroke="#80462f" stroke-width="2" stroke-linecap="round"/><path d="M238 155Q250 150 263 155" fill="none" stroke="#d8e4e7" stroke-width="1.8" stroke-linecap="round" stroke-linejoin="round"/><path d="M238 165Q250 160 263 165" fill="none" stroke="#d8e4e7" stroke-width="1.8" stroke-linecap="round" stroke-linejoin="round"/><path d="M238 175Q250 170 263 175" fill="none" stroke="#d8e4e7" stroke-width="1.8" stroke-linecap="round" stroke-linejoin="round"/><path d="M238 185Q250 180 263 185" fill="none" stroke="#d8e4e7" stroke-width="1.8" stroke-linecap="round" stroke-linejoin="round"/><path d="M238 195Q250 190 263 195" fill="none" stroke="#d8e4e7" stroke-width="1.8" stroke-linecap="round" stroke-linejoin="round"/><path d="M238 205Q250 200 263 205" fill="none" stroke="#d8e4e7" stroke-width="1.8" stroke-linecap="round" stroke-linejoin="round"/><path d="M238 215Q250 210 263 215" fill="none" stroke="#d8e4e7" stroke-width="1.8" stroke-linecap="round" stroke-linejoin="round"/><path d="M238 225Q250 220 263 225" fill="none" stroke="#d8e4e7" stroke-width="1.8" stroke-linecap="round" stroke-linejoin="round"/><path d="M238 235Q250 230 263 235" fill="none" stroke="#d8e4e7" stroke-width="1.8" stroke-linecap="round" stroke-linejoin="round"/><path d="M238 245Q250 240 263 245" fill="none" stroke="#d8e4e7" stroke-width="1.8" stroke-linecap="round" stroke-linejoin="round"/><path d="M238 255Q250 250 263 255" fill="none" stroke="#d8e4e7" stroke-width="1.8" stroke-linecap="round" stroke-linejoin="round"/><path d="M238 265Q250 260 263 265" fill="none" stroke="#d8e4e7" stroke-width="1.8" stroke-linecap="round" stroke-linejoin="round"/><path d="M238 275Q250 270 263 275" fill="none" stroke="#d8e4e7" stroke-width="1.8" stroke-linecap="round" stroke-linejoin="round"/><path d="M238 285Q250 280 263 285" fill="none" stroke="#d8e4e7" stroke-width="1.8" stroke-linecap="round" stroke-linejoin="round"/><path d="M238 295Q250 290 263 295" fill="none" stroke="#d8e4e7" stroke-width="1.8" stroke-linecap="round" stroke-linejoin="round"/><path d="M238 305Q250 300 263 305" fill="none" stroke="#d8e4e7" stroke-width="1.8" stroke-linecap="round" stroke-linejoin="round"/><path d="M244 105L244 369" fill="none" stroke="#fff3d8" stroke-width="0.8" stroke-linecap="round"/><path d="M247 105L247 369" fill="none" stroke="#fff3d8" stroke-width="0.8" stroke-linecap="round"/><path d="M250 105L250 369" fill="none" stroke="#fff3d8" stroke-width="0.8" stroke-linecap="round"/><path d="M253 105L253 369" fill="none" stroke="#fff3d8" stroke-width="0.8" stroke-linecap="round"/><path d="M256 105L256 369" fill="none" stroke="#fff3d8" stroke-width="0.8" stroke-linecap="round"/><path d="M259 105L259 369" fill="none" stroke="#fff3d8" stroke-width="0.8" stroke-linecap="round"/><path d="M262 105L262 369" fill="none" stroke="#fff3d8" stroke-width="0.8" stroke-linecap="round"/><rect x="236" y="367" width="32" height="9" rx="2" fill="#fff3d8"/><ellipse cx="228" cy="94" rx="6" ry="4" fill="#80462f"/><path d="M230 94L244 94" fill="none" stroke="#bd8034" stroke-width="2" stroke-linecap="round"/><ellipse cx="228" cy="111" rx="6" ry="4" fill="#80462f"/><path d="M230 111L244 111" fill="none" stroke="#bd8034" stroke-width="2" stroke-linecap="round"/><ellipse cx="228" cy="128" rx="6" ry="4" fill="#80462f"/><path d="M230 128L244 128" fill="none" stroke="#bd8034" stroke-width="2" stroke-linecap="round"/><circle cx="296.0" cy="351.0" r="2" fill="#bd8034"/><circle cx="289.4352447854375" cy="381.0" r="2" fill="#bd8034"/><circle cx="271.5" cy="402.9615242270663" r="2" fill="#bd8034"/><circle cx="247.0" cy="411.0" r="2" fill="#bd8034"/><circle cx="222.5" cy="402.9615242270663" r="2" fill="#bd8034"/><circle cx="204.5647552145625" cy="381.0" r="2" fill="#bd8034"/><circle cx="198.0" cy="351.0" r="2" fill="#bd8034"/><circle cx="204.56475521456252" cy="321.0" r="2" fill="#bd8034"/><circle cx="222.49999999999997" cy="299.0384757729337" r="2" fill="#bd8034"/><circle cx="247.0" cy="291.0" r="2" fill="#bd8034"/><circle cx="271.5" cy="299.0384757729337" r="2" fill="#bd8034"/><circle cx="289.4352447854375" cy="321.0" r="2" fill="#bd8034"/>
  </g>
</svg>