<svg xmlns="http://www.w3.org/2000/svg" width="512" height="512" viewBox="0 0 512 512" role="img" aria-labelledby="title">
  <title id="title">Bassoon</title>
  <desc>Original flat vector music icon. Recolour the background circle by changing its fill attribute. Artwork is independent.</desc>
  <circle id="background" cx="256" cy="256" r="248" fill="#e9ba79"/>
  <g id="artwork">
<rect x="218" y="143" width="29" height="240" rx="11" fill="#80462f"/><rect x="259" y="202" width="29" height="181" rx="11" fill="#b77342"/><path d="M218 358Q218 404 251 404Q288 404 288 365L269 356Q269 381 251 380Q239 381 239 356Z" fill="#bd8034"/><path d="M273 208V154Q272 125 297 114L314 108" fill="none" stroke="#d8e4e7" stroke-width="8" stroke-linecap="round" stroke-linejoin="round"/><path d="M313 108L322 104" fill="none" stroke="#bd8034" stroke-width="5" stroke-linecap="round"/><circle cx="233" cy="178" r="6" fill="#d8e4e7"/><path d="M239 178L260 191" fill="none" stroke="#90abb6" stroke-width="3" stroke-linecap="round"/><circle cx="233" cy="205" r="6" fill="#d8e4e7"/><path d="M239 205L260 218" fill="none" stroke="#90abb6" stroke-width="3" stroke-linecap="round"/><circle cx="233" cy="232" r="6" fill="#d8e4e7"/><path d="M239 232L260 245" fill="none" stroke="#90abb6" stroke-width="3" stroke-linecap="round"/><circle cx="233" cy="259" r="6" fill="#d8e4e7"/><path d="M239 259L260 272" fill="none" stroke="#90abb6" stroke-width="3" stroke-linecap="round"/><circle cx="233" cy="286" r="6" fill="#d8e4e7"/><path d="M239 286L260 299" fill="none" stroke="#90abb6" stroke-width="3" stroke-linecap="round"/><circle cx="233" cy="313" r="6" fill="#d8e4e7"/><path d="M239 313L260 326" fill="none" stroke="#90abb6" stroke-width="3" stroke-linecap="round"/><circle cx="233" cy="340" r="6" fill="#d8e4e7"/><path d="M239 340L260 353" fill="none" stroke="#90abb6" stroke-width="3" stroke-linecap="round"/><rect x="216" y="143" width="33" height="12" rx="3" fill="#bd8034"/>
  </g>
</svg>